<svg width="24" height="24" viewBox="0 0 24 24" fill="none" xmlns="http://www.w3.org/2000/svg">
<path opacity="0.4" d="M16.191 2H7.81C4.77 2 3 3.78 3 6.83V17.16C3 20.26 4.77 22 7.81 22H16.191C19.28 22 21 20.26 21 17.16V6.83C21 3.78 19.28 2 16.191 2Z" fill="#7C8698"/>
<path fill-rule="evenodd" clip-rule="evenodd" d="M8.08094 6.65002V6.66002C7.64994 6.66002 7.30094 7.01002 7.30094 7.44002C7.30094 7.87002 7.64994 8.22002 8.08094 8.22002H11.0699C11.5009 8.22002 11.8509 7.87002 11.8509 7.42902C11.8509 7.00002 11.5009 6.65002 11.0699 6.65002H8.08094ZM15.9209 12.74H8.08094C7.64994 12.74 7.30094 12.39 7.30094 11.96C7.30094 11.53 7.64994 11.179 8.08094 11.179H15.9209C16.3509 11.179 16.7009 11.53 16.7009 11.96C16.7009 12.39 16.3509 12.74 15.9209 12.74ZM15.9209 17.31H8.08094C7.78094 17.35 7.49094 17.2 7.33094 16.95C7.17094 16.69 7.17094 16.36 7.33094 16.11C7.49094 15.85 7.78094 15.71 8.08094 15.74H15.9209C16.3199 15.78 16.6209 16.12 16.6209 16.53C16.6209 16.929 16.3199 17.27 15.9209 17.31Z" fill="#7C8698"/>
</svg>
