<svg width="24" height="24" viewBox="0 0 20 20" fill="none" xmlns="http://www.w3.org/2000/svg">
<path opacity="0.4" d="M20 10.0048C20 15.5137 15.5116 20 10 20C4.48842 20 0 15.5137 0 10.0048C0 4.48625 4.48842 0 10 0C15.5116 0 20 4.48625 20 10.0048Z" fill="#028D5E"/>
<path d="M14 10.0049C14 10.2576 13.9205 10.5113 13.7614 10.7145C13.7315 10.7543 13.5923 10.9186 13.483 11.0255L13.4233 11.0838C12.5881 11.9694 10.5099 13.3011 9.45597 13.7278C9.45597 13.7375 8.82955 13.9913 8.53125 14H8.49148C8.03409 14 7.60653 13.7482 7.38778 13.34C7.26847 13.1154 7.15909 12.4642 7.14915 12.4554C7.05966 11.8712 7 10.9769 7 9.99514C7 8.96574 7.05966 8.03159 7.16903 7.45808C7.16903 7.44836 7.27841 6.92345 7.34801 6.74848C7.45739 6.49672 7.65625 6.2819 7.90483 6.14581C8.10369 6.04957 8.3125 6 8.53125 6C8.75994 6.01069 9.1875 6.15553 9.35653 6.22357C10.4702 6.65128 12.598 8.05103 13.4134 8.90644C13.5526 9.04253 13.7017 9.20875 13.7415 9.24666C13.9105 9.46051 14 9.72296 14 10.0049Z" fill="#028D5E"/>
</svg>
