<svg width="24" height="24" viewBox="0 0 20 20" fill="none" xmlns="http://www.w3.org/2000/svg">
<path opacity="0.4" d="M14.6667 0H5.33333C1.92889 0 0 1.92889 0 5.33333V14.6667C0 18.0622 1.92 20 5.33333 20H14.6667C18.0711 20 20 18.0622 20 14.6667V5.33333C20 1.92889 18.0711 0 14.6667 0Z" fill="#1966FA"/>
<path d="M13.3205 10.7083H10.7495V13.257C10.7495 13.6673 10.4139 14 10 14C9.58605 14 9.25048 13.6673 9.25048 13.257V10.7083H6.67955C6.29342 10.6687 6 10.3461 6 9.96132C6 9.5765 6.29342 9.25394 6.67955 9.21431H9.24242V6.67365C9.28241 6.29088 9.60778 6 9.99597 6C10.3842 6 10.7095 6.29088 10.7495 6.67365V9.21431H13.3205C13.7066 9.25394 14 9.5765 14 9.96132C14 10.3461 13.7066 10.6687 13.3205 10.7083Z" fill="#1966FA"/>
</svg>
