<svg width="22" height="22" viewBox="0 0 22 22" fill="none" xmlns="http://www.w3.org/2000/svg">
<path d="M19.6497 2.3668C19.1912 1.89619 18.5126 1.72087 17.8799 1.90542L3.12465 6.19621C2.45704 6.38168 1.98385 6.91411 1.85638 7.59049C1.72616 8.27886 2.18101 9.1527 2.77525 9.51811L7.38889 12.3537C7.86209 12.6444 8.47284 12.5715 8.86441 12.1766L14.1475 6.86059C14.4134 6.58377 14.8536 6.58377 15.1196 6.86059C15.3855 7.12819 15.3855 7.56188 15.1196 7.83871L9.82731 13.1556C9.43481 13.5496 9.36145 14.1632 9.65032 14.6394L12.4693 19.2993C12.7994 19.8529 13.368 20.1666 13.9916 20.1666C14.065 20.1666 14.1475 20.1666 14.2209 20.1574C14.9361 20.0651 15.5047 19.5761 15.7156 18.884L20.0899 4.1477C20.2825 3.52023 20.1083 2.8374 19.6497 2.3668Z" fill="#6A3DED"/>
</svg>
