<svg width="20" height="20" viewBox="0 0 20 20" fill="none" xmlns="http://www.w3.org/2000/svg">
<path d="M9.16737 3.33333L8.7507 2.5L8.33404 3.33333L7.5007 3.4375L8.1957 4.0275L7.91737 5L8.7507 4.445L9.58404 5L9.3057 4.0275L10.0007 3.4375L9.16737 3.33333ZM16.1124 12.2217L15.4174 10.8333L14.7224 12.2217L13.334 12.3958L14.4915 13.38L14.029 15L15.4174 14.0742L16.8057 15L16.3432 13.38L17.5007 12.3958L16.1124 12.2217ZM5.55654 5.2775L5.0007 4.16667L4.44487 5.2775L3.33404 5.41667L4.25987 6.20333L3.88987 7.5L5.0007 6.75917L6.11154 7.5L5.74154 6.20333L6.66737 5.41667L5.55654 5.2775ZM2.8457 14.1667C2.8457 14.6117 3.01904 15.03 3.33404 15.345L4.6557 16.6667C4.9707 16.9817 5.38904 17.155 5.83404 17.155C6.27904 17.155 6.69737 16.9817 7.01237 16.6667L16.6674 7.01167C16.9824 6.69667 17.1557 6.27833 17.1557 5.83333C17.1557 5.38833 16.9824 4.97 16.6674 4.655L15.3457 3.33333C14.7157 2.70333 13.619 2.70333 12.989 3.33333L3.33404 12.9883C3.01904 13.3033 2.8457 13.7217 2.8457 14.1667ZM14.1674 4.51167L15.489 5.83333L12.5007 8.82167L11.179 7.5L14.1674 4.51167Z" fill="white"/>
</svg>
